<?xml version="1.0" encoding="UTF-8" standalone="no"?>
<!--part of the rodentia icon theme by sixsixfive released under CC0 (https://creativecommons.org/publicdomain/zero/1.0/) on openclipart-->
<svg xmlns="http://www.w3.org/2000/svg" xmlns:xlink="http://www.w3.org/1999/xlink" viewBox="0 0 48 48">
 <defs id="0">
  <linearGradient id="2">
   <stop id="I" stop-color="#2e3436"/>
   <stop id="J" offset="1" stop-color="#2e3436" stop-opacity="0"/>
  </linearGradient>
  <linearGradient id="3">
   <stop id="K" stop-color="#fff"/>
   <stop id="L" offset="1" stop-color="#fff" stop-opacity="0"/>
  </linearGradient>
  <linearGradient id="4">
   <stop id="M" stop-color="#fff" stop-opacity="0.8"/>
   <stop id="N" offset="1" stop-color="#fff" stop-opacity="0"/>
  </linearGradient>
  <linearGradient id="5">
   <stop id="O" stop-color="#323232"/>
   <stop id="P" offset="0.5" stop-color="#555753"/>
   <stop id="Q" offset="1" stop-color="#2e3436"/>
  </linearGradient>
  <linearGradient id="6">
   <stop id="R" stop-color="#939393"/>
   <stop id="S" offset="0.5" stop-color="#939393"/>
   <stop id="T" offset="0.5" stop-color="#fff"/>
   <stop id="U" offset="1" stop-color="#fff"/>
  </linearGradient>
  <linearGradient id="7">
   <stop id="V" stop-color="#eeeeec"/>
   <stop id="W" offset="1" stop-color="#d3d7cf"/>
  </linearGradient>
  <linearGradient id="8">
   <stop id="X" stop-color="#323232" stop-opacity="0"/>
   <stop id="Y" offset="0.5" stop-color="#323232"/>
   <stop id="Z" offset="1" stop-color="#323232" stop-opacity="0"/>
  </linearGradient>
  <radialGradient cx="23.74" cy="47.3" r="13.246" id="9" xlink:href="#2" gradientUnits="userSpaceOnUse" gradientTransform="matrix(1,0,0,0.1497584,0,40.213129)"/>
  <radialGradient cx="64.42" cy="55.21" r="40.6" id="A" xlink:href="#7" gradientUnits="userSpaceOnUse" gradientTransform="matrix(0.3127549,-0.2008258,0.2831853,0.4410173,-10.639214,8.4763719)"/>
  <linearGradient x1="59.899" x2="72.53" id="B" xlink:href="#6" gradientUnits="userSpaceOnUse"/>
  <linearGradient x1="23.33" x2="105.06" id="C" xlink:href="#8" gradientUnits="userSpaceOnUse" gradientTransform="matrix(0.3716808,0,0,0.3716808,1.2000875,0.4855987)"/>
  <linearGradient y1="21.09" x2="0" y2="39.75" id="D" xlink:href="#5" gradientUnits="userSpaceOnUse"/>
  <linearGradient y1="2.063" x2="0" y2="45.13" id="E" xlink:href="#4" gradientUnits="userSpaceOnUse"/>
  <linearGradient x1="0.286" y1="-17.694" x2="27.946" y2="33.478" id="F" xlink:href="#3" gradientUnits="userSpaceOnUse"/>
 </defs>
 <g transform="translate(-2.1114815e-8,-0.4040622)" id="1">
  <path d="m 36.985524,47.296124 a 13.245681,1.9836526 0 1 1 -26.491361,0 13.245681,1.9836526 0 1 1 26.491361,0 z" transform="translate(0.2601566,-1.3637761)" id="G" opacity="0.8" fill="url(#9)"/>
  <g transform="translate(-1.144996,0)" id="H">
   <path d="m 64.375,1.09375 c -0.756965,0 -1.498661,0.017619 -2.25,0.0625 -23.240464,1.3882728 -41.25,23.788108 -41.25,50.65625 0.02198,5.140286 0.03227,7.739247 0.03125,9.03125 -5.11e-4,0.646001 -8.76e-4,0.948352 0,1.125 1.1e-4,0.02208 -2.22e-4,0.04235 0,0.0625 -0.0013,0.02501 1.84e-4,0.0078 0,0.03125 1.82e-4,0.01056 -2.82e-4,0.01955 0,0.03125 -0.001,0.007 -0.0077,0.0091 0,0.125 0.0013,0.0058 3.1e-5,0.09211 0,0.09375 -0.0057,0.29533 0.0041,0.559202 0,1.1875 -0.0086,1.306084 -0.02214,3.885104 -0.03125,9.03125 0,26.856111 17.993386,49.2498 41.21875,50.65625 0.0104,6.3e-4 0.02084,-6.2e-4 0.03125,0 0.789391,0.0562 1.529979,0.0625 2.25,0.0625 0.720156,0 1.486468,-0.006 2.28125,-0.0625 0.01044,-6.2e-4 0.02081,6.3e-4 0.03125,0 23.216253,-1.40597 41.17335,-23.784854 41.1875,-50.625 1e-5,-0.01059 0,-0.02066 0,-0.03125 0.0457,-5.103029 0.0879,-7.687895 0.0937,-9.03125 0.003,-0.658323 0.005,-0.97306 0,-1.21875 -0.008,-0.435672 -0.0608,-0.701169 -0.0312,-0.40625 9.8e-4,0.0098 -0.0317,-0.08923 -0.0312,-0.09375 2.7e-4,0.0061 -2.6e-4,-0.06459 0,-0.0625 0.004,0.03243 0.006,-0.345149 0,-0.96875 -0.0126,-1.289861 -0.0404,-3.836745 -0.0312,-8.9375 0,-26.868142 -18.009537,-49.2679772 -41.25,-50.65625 -0.751339,-0.044881 -1.493035,-0.0625 -2.25,-0.0625 z" transform="matrix(0.3716808,0,0,0.3716808,1.2000897,0.4855986)" id="a" fill="#bbb"/>
   <path d="m 25.12898,1.983937 c -0.260194,0 -0.521249,0.00788 -0.778207,0.02323 -7.965706,0.4758328 -14.298095,8.237461 -14.298095,17.736144 0.0327,7.646212 0.01354,0.0545 0,7.700762 0,9.498682 6.332389,17.260312 14.298095,17.736144 0.256958,0.0187 0.518013,0.02323 0.778207,0.02323 0.260195,0 0.521248,-0.0045 0.778206,-0.02323 7.965707,-0.475832 14.2981,-8.237462 14.2981,-17.736144 0.06828,-7.647444 -0.01357,-0.101658 0,-7.700762 0,-9.498683 -6.332393,-17.2603112 -14.2981,-17.736144 -0.256958,-0.015349 -0.518011,-0.02323 -0.778206,-0.02323 l 0,0 z" id="b" fill="url(#A)"/>
   <path d="m 72.530421,38.085712 a 6.3154855,20.378836 0 1 1 -12.630971,0 6.3154855,20.378836 0 1 1 12.630971,0 z" transform="matrix(0.4023349,0,0,0.4179925,-1.4978241,-2.560784)" id="c" opacity="0.218" fill="url(#B)"/>
   <path d="m 10.057081,19.941003 c 10.069787,5.016584 20.066519,4.627065 30.007294,0.0968" id="d" opacity="0.418" fill="none" stroke="url(#C)" stroke-width="0.372"/>
   <path d="m 25.142755,2.1533926 0,21.3701544" id="e" opacity="0.203" fill="#bbb" stroke="#000" stroke-linejoin="round" stroke-linecap="round" stroke-width="0.371"/>
   <path d="m 64.5,20.1875 c -2.324036,0 -4.1875,2.007 -4.1875,4.5 l 0,11.46875 c 0,2.493 1.863464,4.5 4.1875,4.5 2.324036,0 4.21875,-2.007 4.21875,-4.5 l 0,-11.46875 c 0,-2.493 -1.894714,-4.5 -4.21875,-4.5 z" transform="matrix(0.3716808,0,0,0.3716808,1.2000897,0.4855986)" id="f" fill="#bbb"/>
   <path d="m 64.5,21.09375 c -1.810806,0 -3.28125,1.544978 -3.28125,3.59375 l 0,11.46875 c 0,2.048772 1.470444,3.59375 3.28125,3.59375 1.810806,0 3.3125,-1.552428 3.3125,-3.59375 l 0,-11.46875 c 0,-2.041322 -1.501694,-3.59375 -3.3125,-3.59375 z" transform="matrix(0.3716808,0,0,0.3716808,1.2000897,0.4855986)" id="g" fill="url(#D)"/>
   <path d="m 25.125,2.5625 c -0.236452,0 -0.492854,0.01589 -0.75,0.03125 -7.606778,0.4543922 -13.71875,7.915895 -13.71875,17.15625 0.01596,3.732465 0.04412,3.67862 0,3.875 2.92e-4,-0.0055 5.49e-4,0.03427 0,0.0625 -3.76e-4,0.0016 3.87e-4,0.02959 0,0.03125 -0.0011,0.06159 0.0015,0.153619 0,0.375 -0.0032,0.479658 0.0034,1.432598 0,3.34375 0,9.240354 6.111972,16.701859 13.71875,17.15625 0.246968,0.01797 0.508554,0.03125 0.75,0.03125 0.241448,0 0.503035,-0.01328 0.75,-0.03125 7.606869,-0.454398 13.75,-7.917174 13.75,-17.15625 0.01707,-1.911679 0.02912,-2.892262 0.03125,-3.375 0.0011,-0.241369 9.86e-4,-0.354576 0,-0.40625 -0.0083,-0.05345 0.0019,-0.08501 0,-0.125 -0.0037,-0.07999 -0.02887,-0.195034 -0.03125,-0.4375 -0.0048,-0.484933 -0.0034,-1.4431 0,-3.34375 2e-6,-9.239077 -6.14313,-16.7018524 -13.75,-17.15625 C 25.617853,2.57839 25.361452,2.5625 25.125,2.5625 z" id="h" opacity="0.8" fill="none" stroke="url(#E)"/>
   <path d="M 25.125,1.96875 C 24.864805,1.96875 24.600708,1.984651 24.34375,2 16.378044,2.4758328 10.0625,10.251317 10.0625,19.75 c 0.0327,7.646212 0.01354,0.04123 0,7.6875 0,0.737029 0.05095,1.47398 0.125,2.1875 9.841016,-2.979274 19.84255,-5.684129 30.03125,-8.03125 -0.0044,-0.495399 -0.0033,-0.0063 0,-1.84375 C 40.218752,10.251317 33.871957,2.4758328 25.90625,2 25.649291,1.9846508 25.385195,1.96875 25.125,1.96875 z" id="i" fill="url(#F)"/>
  </g>
 </g>
</svg>
